<svg width="24" height="24" xmlns="http://www.w3.org/2000/svg"><path d="M12 19a.795.795 0 0 1-.305-.06l-6.75-2.8c-.378-.157-.548-.57-.38-.924.168-.354.611-.513.99-.356L12 17.534l6.445-2.674c.379-.157.822.002.99.356.168.353-.002.767-.38.924l-6.75 2.8c-.096.04-.2.06-.305.06zm0-3.5a.795.795 0 0 1-.305-.06l-6.75-2.8c-.378-.157-.548-.57-.38-.924.168-.353.611-.513.99-.356L12 14.034l6.445-2.674c.379-.157.822.003.99.356.168.353-.002.767-.38.924l-6.75 2.8c-.096.04-.2.06-.305.06zm7.054-7.64l-6.75-2.8a.796.796 0 0 0-.609 0l-6.75 2.8a.7.7 0 0 0-.444.64.7.7 0 0 0 .445.64l6.75 2.8c.193.08.415.08.609 0l6.75-2.8a.7.7 0 0 0 .444-.64.7.7 0 0 0-.445-.64z" fill-rule="nonzero"/></svg>