<svg width="24" height="24" xmlns="http://www.w3.org/2000/svg"><path d="M12.088 10.834c-.305 0-.611-.058-.856-.176l-4.77-2.287c-.368-.117-.551-.352-.551-.645 0-.293.183-.528.49-.704l4.831-2.346c.245-.117.612-.176.918-.176.305 0 .611.059.856.176l4.77 2.229c.307.176.49.41.49.704 0 .293-.183.527-.49.703l-4.831 2.346c-.184.118-.55.176-.857.176zm-1.46 8.666c-.184 0-.307-.059-.49-.117l-4.22-2.112C5.427 17.037 5 16.51 5 16.098v-5.806c0-.41.306-.704.734-.704.122 0 .306.059.428.117l4.282 2.112c.489.234.917.762.917 1.173v5.748c0 .469-.367.762-.734.762zm2.745 0c-.428 0-.734-.293-.734-.704v-5.748c0-.469.367-.938.917-1.173l4.282-2.17a1.17 1.17 0 0 1 .428-.117c.428 0 .734.293.734.704v5.748c0 .469-.367.938-.917 1.173l-4.282 2.17c-.122.058-.245.117-.428.117z" fill-rule="nonzero"/></svg>