<svg width="24" height="24" xmlns="http://www.w3.org/2000/svg"><path d="M17.928 4H6.07C5.48 4 5 4.482 5 5.072v13.856C5 19.518 5.481 20 6.07 20h11.86c.589 0 1.07-.482 1.07-1.072V5.072A1.077 1.077 0 0 0 17.928 4zm-1.942 11.504a.609.609 0 0 1-.606.607H8.593a.609.609 0 0 1-.606-.607c0-.334.273-.607.606-.607h6.787c.334 0 .606.273.606.607zM16 11.988a.609.609 0 0 1-.606.608H8.606a.609.609 0 0 1-.607-.608c0-.334.273-.607.607-.607h6.787c.333 0 .606.273.606.607zm0-3.5a.609.609 0 0 1-.606.607H8.606a.609.609 0 0 1-.607-.608c0-.334.273-.607.607-.607h6.787c.333 0 .606.273.606.607z"/></svg>