<?xml version="1.0" encoding="UTF-8"?>
<svg width="24px" height="24px" viewBox="0 0 24 24" version="1.1" xmlns="http://www.w3.org/2000/svg" xmlns:xlink="http://www.w3.org/1999/xlink">
    <!-- Generator: Sketch 56.3 (81716) - https://sketch.com -->
    <title>jianjie</title>
    <desc>Created with Sketch.</desc>
    <g id="页面-1" stroke="none" stroke-width="1" fill="none" fill-rule="evenodd">
        <g id="后台图标" transform="translate(-604.000000, -843.000000)"  fill-rule="nonzero">
            <g id="jianjie_export" transform="translate(604.000000, 843.000000)">
                <g id="jianjie" transform="translate(2.500000, 0.500000)">
                    <path d="M15.7907733,0 L3.1672194,0 C1.43165576,0 0.0115151443,1.4201406 0.0115151443,3.15570424 L0.0115151443,18.9349624 C0.0115151443,20.6705261 1.43165574,22.0906667 3.16721938,22.0906667 L15.7907733,22.0906667 C17.526337,22.0906667 18.9464776,20.6705261 18.9464776,18.9349624 L18.9464776,3.15570424 C18.9464776,1.4201406 17.526337,0 15.7907733,0 L15.7907733,0 Z M3.95651395,3.15570424 L8.69007031,3.15570424 C9.16320486,3.15570424 9.47936486,3.47112727 9.47936486,3.94499878 C9.47936486,4.41813333 9.16394182,4.73429333 8.69007031,4.73429333 L3.95651395,4.73429333 C3.4833794,4.73429333 3.1672194,4.41887029 3.1672194,3.94499878 C3.1672194,3.47112727 3.48264242,3.15570424 3.95651395,3.15570424 L3.95651395,3.15570424 Z M15.0014788,18.9349624 L3.95651395,18.9349624 C3.4833794,18.9349624 3.1672194,18.6195394 3.1672194,18.1456679 C3.1672194,17.6717964 3.48264244,17.3563733 3.95651395,17.3563733 L15.0022158,17.3563733 C15.4753503,17.3563733 15.7915103,17.6717964 15.7915103,18.1456679 C15.7915103,18.6195394 15.4753503,18.9349624 15.0014788,18.9349624 L15.0014788,18.9349624 Z M15.0014788,14.2014061 L3.95651395,14.2014061 C3.4833794,14.2014061 3.1672194,13.885983 3.1672194,13.4121115 C3.1672194,12.938977 3.48264244,12.622817 3.95651395,12.622817 L15.0022158,12.622817 C15.4753503,12.622817 15.7915103,12.93824 15.7915103,13.4121115 C15.7907733,13.8852461 15.4753503,14.2014061 15.0014788,14.2014061 L15.0014788,14.2014061 Z M15.0014788,9.46711273 L3.95651395,9.46711273 C3.4833794,9.46711273 3.1672194,9.15168969 3.1672194,8.67781818 C3.1672194,8.20468364 3.48264244,7.88852364 3.95651395,7.88852364 L15.0022158,7.88852364 C15.4753503,7.88852364 15.7915103,8.20394667 15.7915103,8.67781818 C15.7907733,9.15168969 15.4753503,9.46711273 15.0014788,9.46711273 L15.0014788,9.46711273 Z" id="形状"></path>
                </g>
            </g>
        </g>
    </g>
</svg>
