<svg width="24" height="24" xmlns="http://www.w3.org/2000/svg"><g fill-rule="nonzero"><path d="M12.05 15.95h-.1l.05.1z"/><path d="M19.157 5H4.83a.825.825 0 0 0-.72.416.823.823 0 0 0 0 .823.842.842 0 0 0 .72.416h.572v8.277c0 .448.368.824.826.824h4.106l-2.405 2.177a.632.632 0 0 0-.024.872c.245.253.646.261.891.017l3.239-3.018 3.164 2.903a.623.623 0 1 0 .884-.88l-2.34-2.08h4.098a.825.825 0 0 0 .826-.823V6.655h.507c.45 0 .818-.358.826-.815a.84.84 0 0 0-.843-.84zm-2.764 5.219c0 .171-.204.26-.327.138l-.523-.497c-.025-.025-.066-.025-.098 0l-2.928 2.454a.385.385 0 0 1-.499 0l-1.316-1.092a.384.384 0 0 0-.491 0L8.216 12.82a.393.393 0 0 1-.638-.302c0-.114.057-.228.147-.301l2.478-1.99a.394.394 0 0 1 .49 0l1.317 1.093c.147.122.36.122.499 0l2.363-1.982c.033-.024.033-.073 0-.106l-.695-.669c-.114-.106-.033-.301.123-.301h1.84c.139 0 .245.114.245.244v1.713h.008z"/></g></svg>