<?xml version="1.0" encoding="UTF-8"?>
<svg width="24px" height="24px" viewBox="0 0 24 24" version="1.1" xmlns="http://www.w3.org/2000/svg" xmlns:xlink="http://www.w3.org/1999/xlink">
    <!-- Generator: Sketch 56.3 (81716) - https://sketch.com -->
    <title>icon_notice</title>
    <desc>Created with Sketch.</desc>
    <g id="页面-1" stroke="none" stroke-width="1" fill="none" fill-rule="evenodd">
        <g id="后台图标" transform="translate(-602.000000, -551.000000)"  fill-rule="nonzero">
            <g id="icon_notice_export" transform="translate(602.000000, 550.000000)">
                <g id="icon_notice" transform="translate(2.000000, 0.500000)">
                    <path d="M2.30769231,17.6923077 L2.30769231,10 C2.30769231,6.27846154 4.95076923,3.17461538 8.46153846,2.46153846 L8.46153846,1.53846154 C8.46153846,0.688461538 9.15,0 10,0 C10.85,0 11.5384615,0.688461538 11.5384615,1.53846154 L11.5384615,2.46153846 C15.0492308,3.17461538 17.6923077,6.27846154 17.6923077,10 L17.6923077,17.6923077 L18.4638462,17.6923077 C19.3123077,17.6923077 20,18.3753846 20,19.2307692 C20,20.0807692 19.3115385,20.7692308 18.4638462,20.7692308 L1.53615385,20.7692308 C0.687692308,20.7692308 0,20.0861538 0,19.2307692 C0,18.3807692 0.688461538,17.6923077 1.53615385,17.6923077 L2.30769231,17.6923077 Z M12.3076923,22.3076923 C12.3076923,23.5823077 11.2746154,24.6153846 10,24.6153846 C8.72538462,24.6153846 7.69230769,23.5823077 7.69230769,22.3076923 L12.3076923,22.3076923 Z" id="形状"></path>
                </g>
            </g>
        </g>
    </g>
</svg>
