<?xml version="1.0" encoding="UTF-8"?>
<svg width="24px" height="24px" viewBox="0 0 24 24" version="1.1" xmlns="http://www.w3.org/2000/svg" xmlns:xlink="http://www.w3.org/1999/xlink">
    <!-- Generator: Sketch 56.3 (81716) - https://sketch.com -->
    <title>编组备份</title>
    <desc>Created with Sketch.</desc>
    <g id="页面-1" stroke="none" stroke-width="1" fill="none" fill-rule="evenodd">
        <!--<g id="后台图标" transform="translate(-666.000000, -160.000000)" fill="#CCCCCC" fill-rule="nonzero">-->
        <g id="后台图标" transform="translate(-666.000000, -160.000000)"  fill-rule="nonzero">
            <g id="编组备份_export" transform="translate(666.000000, 160.000000)">
                <g id="编组备份" transform="translate(2.000000, 2.500000)">
                    <g id="xitongguanli">
                        <path d="M19.6436262,11.3445444 C19.6254851,11.8231432 19.2586525,12.215809 18.7823925,12.2664283 L18.6963794,12.2664283 C17.2715935,12.2682521 16.1172016,13.4231373 16.1159866,14.8479238 C16.1310385,15.1890768 16.2056799,15.5249633 16.336533,15.8403826 C16.5527343,16.3448701 16.3884392,16.9318351 15.941755,17.2507768 L15.9163921,17.2684205 L13.3966496,18.6545546 L13.370184,18.6666846 C13.2229478,18.7306446 13.0642549,18.7640339 12.9037284,18.7648506 C12.5492419,18.7669374 12.2096386,18.6224763 11.9653035,18.3656388 C11.4260232,17.735856 10.6902359,17.3061935 9.87672914,17.1460173 C9.07230186,17.3052105 8.34305928,17.7258528 7.80249031,18.3424814 C7.55905704,18.5958642 7.2220431,18.7378487 6.8706818,18.735054 C6.70647128,18.7366071 6.5437762,18.703542 6.39319885,18.6380136 L6.36783602,18.6269863 L3.93300383,17.2640096 L3.90874373,17.2474686 C3.46308272,16.9272066 3.30023294,16.3400299 3.51727388,15.8359717 C3.64756638,15.5223004 3.72219832,15.1883225 3.73782029,14.8490266 C3.73660525,13.42424 2.58221343,12.2693548 1.15742749,12.267531 L1.05487341,12.267531 C0.585868079,12.2067453 0.22877485,11.8170621 0.20907798,11.3445444 C-0.0682262567,10.0618124 -0.0682262567,8.73463253 0.20907798,7.45190053 C0.226214395,6.97268174 0.593424387,6.57914172 1.07031166,6.52891388 L1.15632476,6.52891388 C2.5811107,6.52709008 3.73550252,5.37220493 3.73671756,3.94741834 C3.7217335,3.60625646 3.64708946,3.27035829 3.51617115,2.95495958 C3.29975433,2.45024822 3.46460523,1.8629382 3.91205193,1.54456539 L3.93741478,1.52692168 L6.50678024,0.115424757 L6.53765675,0.106602903 C6.68581393,0.0467612427 6.84433438,0.0167810142 7.00411236,0.0183232703 C7.35472288,0.0154363846 7.69176038,0.153748944 7.93922907,0.402135073 C8.47670836,0.9980272 9.19498745,1.40094535 9.98369414,1.54897632 C10.7643052,1.40452917 11.4765967,1.00967191 12.012721,0.424189708 C12.2593243,0.180036599 12.5931079,0.0443005971 12.9401186,0.0470553872 C13.1049991,0.0459414693 13.2683242,0.078981933 13.4198069,0.144095801 L13.4451698,0.155123119 L15.9263167,1.5346408 L15.9505768,1.55007905 C16.3968123,1.87040864 16.5601194,2.45803906 16.3431494,2.9626787 C16.2126841,3.27629519 16.1380453,3.61030387 16.122603,3.9496238 C16.1244256,5.37397977 17.2786398,6.52819401 18.7029958,6.53001661 L18.7890089,6.53001661 C19.2656693,6.58069925 19.6326368,6.97397936 19.6502426,7.45300326 C19.7673595,8.09524183 19.83446,8.74560068 19.8509398,9.39822246 C19.8328661,10.0514214 19.7635487,10.702194 19.6436262,11.3445444 Z M9.89878378,5.39860362 C7.69657463,5.41138554 5.92047614,7.20472505 5.92894805,9.40695483 C5.93748075,11.6091846 7.72737342,13.3887566 9.92961554,13.3845315 C12.1318577,13.3802914 13.9149336,11.5938523 13.9149336,9.39160607 C13.9064226,7.18039532 12.1089028,5.3937307 9.89768105,5.39860362 L9.89878378,5.39860362 Z M9.88444826,11.6555151 C8.96645237,11.6559609 8.13860024,11.1033167 7.7869893,10.2553271 C7.43537836,9.4073375 7.62926822,8.43103766 8.27823165,7.78175873 C8.92719508,7.13247981 9.90340058,6.93811546 10.751561,7.28931422 C11.5997214,7.64051298 12.1527679,8.46809641 12.1527679,9.38609241 C12.1515521,10.6389558 11.136209,11.654299 9.88334553,11.6555151 L9.88444826,11.6555151 Z" id="形状"></path>
                    </g>
                </g>
            </g>
        </g>
    </g>
</svg>
