<svg width="24" height="24" xmlns="http://www.w3.org/2000/svg"><path d="M10.462 4.5a1.755 1.755 0 0 0 1.752 1.597c.886 0 1.619-.65 1.742-1.497.81.211 1.57.551 2.252.996a1.742 1.742 0 0 0 .205 2.23c.593.59 1.504.67 2.184.242.412.681.72 1.433.903 2.232a1.751 1.751 0 0 0-1.348 1.7c0 .825.574 1.516 1.346 1.701-.182.8-.49 1.551-.902 2.234a1.763 1.763 0 0 0-2.183.24 1.742 1.742 0 0 0-.204 2.23 7.687 7.687 0 0 1-2.254.997 1.755 1.755 0 0 0-1.74-1.498c-.92 0-1.675.702-1.753 1.596a7.668 7.668 0 0 1-2.073-.737l-.316-.177.057-.063a1.742 1.742 0 0 0-.114-2.348 1.766 1.766 0 0 0-2.478-.01A7.572 7.572 0 0 1 4.5 13.75h.018c.972 0 1.76-.783 1.76-1.749 0-.966-.788-1.749-1.76-1.749l-.018.002a7.58 7.58 0 0 1 .864-2.14l.173-.28.117.107c.691.567 1.716.53 2.362-.114a1.742 1.742 0 0 0 .06-2.411 7.64 7.64 0 0 1 2.386-.915zm-2.39 14.086l-.051.056.052-.056zM12 8.5a3.5 3.5 0 1 0 0 7 3.5 3.5 0 0 0 0-7z" fill-rule="evenodd"/></svg>